<svg t="1717378438365" class="icon" viewBox="0 0 1024 1024" version="1.1"
  xmlns="http://www.w3.org/2000/svg" p-id="4853" fill="currentColor">
  <path d="M896 320v512c0 106.048-86.016 192-192 192H320a192 192 0 0 1-192-192V320a64 64 0 1 1 0-128h192a192 192 0 0 1 192-192c105.984 0 192 85.952 192 192h192c35.392 0 64 28.608 64 64s-28.608 64-64 64zM512 128a64 64 0 0 0-64 64h128c0-35.392-28.608-64-64-64z m-256 192v512a64 64 0 0 0 64 64h384c35.392 0 64-28.608 64-64V320H256z m352 448c-17.6 0-32-14.336-32-32v-256a32 32 0 0 1 64 0v256a32 32 0 0 1-32 32z m-192 0a32 32 0 0 1-32-32v-256a32 32 0 0 1 64 0v256a32 32 0 0 1-32 32z" p-id="4854"></path>
</svg>