<svg t="1718176722681" class="icon" viewBox="0 0 1024 1024" version="1.1"
  xmlns="http://www.w3.org/2000/svg" p-id="16361" fill="currentColor">
  <path d="M192 160c-17.6 0-32 14.4-32 32v640c0 17.6 14.4 32 32 32h640c17.6 0 32-14.4 32-32V192c0-17.6-14.4-32-32-32H192zM64 192c0-70.6 57.4-128 128-128h640c70.6 0 128 57.4 128 128v640c0 70.6-57.4 128-128 128H192c-70.6 0-128-57.4-128-128V192z m304 272h288c26.6 0 48 21.4 48 48s-21.4 48-48 48H368c-26.6 0-48-21.4-48-48s21.4-48 48-48z" p-id="16362"></path>
</svg>