<svg t="1717378340485" class="icon" viewBox="0 0 1024 1024" version="1.1"
  xmlns="http://www.w3.org/2000/svg" p-id="4706" fill="currentColor">
  <path d="M832 768h-11.52c-1.152-3.136-1.856-6.4-3.136-9.408C796.096 707.136 768 668.672 704 650.944V576c0-105.856-86.144-192-192-192s-192 86.144-192 192v74.816c-64 17.728-92.096 56.192-113.344 107.456-0.64 1.472-0.96 3.136-1.472 4.608C88.128 739.328 0 635.968 0 512v-64C0 306.624 114.624 192 256 192c24.32 0 47.424 4.48 69.696 10.816C350.208 86.976 452.864 0 576 0c141.376 0 256 114.624 256 256 0 22.592-3.904 44.096-9.344 64.96 3.136-0.192 6.144-0.96 9.344-0.96 106.048 0 192 86.016 192 192v64a192 192 0 0 1-192 192z m-448 0h64.128v-192c0-35.392 28.608-64 64-64a63.957333 63.957333 0 0 1 64.064 64v192h63.872a64.042667 64.042667 0 0 1 63.744 57.856 64.192 64.192 0 0 1-18.496 51.392l-128.064 128c-12.48 12.48-28.864 18.752-45.248 18.752s-32.768-6.272-45.248-18.752l-128-128a64.533333 64.533333 0 0 1-18.368-51.392c0.512-6.272 1.984-12.352 4.48-18.368A64.106667 64.106667 0 0 1 384 768z" p-id="4707"></path>
</svg>