<svg t="1718694344145" class="icon" viewBox="0 0 1024 1024" version="1.1"
  xmlns="http://www.w3.org/2000/svg" p-id="6642" fill="currentColor">
  <path d="M864 192H160a128 128 0 0 0-128 128v384a128 128 0 0 0 128 128h704a128 128 0 0 0 128-128V320a128 128 0 0 0-128-128z m-256 128a64 64 0 1 1-64 64 64 64 0 0 1 64-64z m-32 224a64 64 0 1 1-64-64 64 64 0 0 1 64 64z m-160-224a64 64 0 1 1-64 64 64 64 0 0 1 64-64z m-256 64a64 64 0 1 1 64 64 64 64 0 0 1-64-64z m96 160a64 64 0 1 1 64 64 64 64 0 0 1-64-64z m384 224h-256a64 64 0 0 1 0-128h256a64 64 0 0 1 0 128z m64-160a64 64 0 1 1 64-64 64 64 0 0 1-64 64z m96-160a64 64 0 1 1 64-64 64 64 0 0 1-64 64z" p-id="6643"></path>
</svg>