<svg t="1715937095886" class="icon" viewBox="0 0 1024 1024" version="1.1"
  xmlns="http://www.w3.org/2000/svg" p-id="1332">
  <path d="M85.333333 256a128 128 0 0 1 128-128h597.333334a128 128 0 0 1 128 128v554.666667a128 128 0 0 1-128 128H213.333333a128 128 0 0 1-128-128V256z" fill="#E3DCD6" p-id="1333"></path>
  <path d="M85.333333 192a128 128 0 0 1 128-128h597.333334a128 128 0 0 1 128 128v554.666667a128 128 0 0 1-128 128H213.333333a128 128 0 0 1-128-128V192z" fill="#FDF6EF" p-id="1334"></path>
  <path d="M512 768c164.949333 0 298.666667-133.717333 298.666667-298.666667S676.949333 170.666667 512 170.666667s-298.666667 133.717333-298.666667 298.666666 133.717333 298.666667 298.666667 298.666667z m0 21.333333c176.725333 0 320-143.274667 320-320 0-176.725333-143.274667-320-320-320-176.725333 0-320 143.274667-320 320 0 176.725333 143.274667 320 320 320z" fill="#E3DCD6" p-id="1335"></path>
  <path d="M512 661.333333a192 192 0 1 0 0-384 192 192 0 0 0 0 384z m0 21.333334c117.824 0 213.333333-95.509333 213.333333-213.333334s-95.509333-213.333333-213.333333-213.333333-213.333333 95.509333-213.333333 213.333333 95.509333 213.333333 213.333333 213.333334z" fill="#381715" p-id="1336"></path>
  <path d="M512 554.666667a85.333333 85.333333 0 1 0 0-170.666667 85.333333 85.333333 0 0 0 0 170.666667z m0 21.333333a106.666667 106.666667 0 1 0 0-213.333333 106.666667 106.666667 0 0 0 0 213.333333z" fill="#E3DCD6" p-id="1337"></path>
  <path d="M767.936 189.056l0.064 1.749333V606.933333c0 17.728-5.888 34.986667-16.725333 49.024a81.130667 81.130667 0 0 1-95.082667 25.365334 80.746667 80.746667 0 0 1-39.04-34.133334 80.298667 80.298667 0 0 1 12.842667-97.237333 80.96 80.96 0 0 1 97.6-12.778667v-113.152l-309.909334 74.453334v182.293333h-0.277333a80.32 80.32 0 0 1-13.013333 50.944 81.130667 81.130667 0 0 1-94.570667 31.658667 80.789333 80.789333 0 0 1-41.258667-32.789334 80.298667 80.298667 0 0 1 9.941334-98.88 81.088 81.088 0 0 1 98.773333-13.973333l-0.042667-346.368a20.074667 20.074667 0 0 1 13.866667-19.136l1.813333-0.490667 350.314667-80.554666a20.266667 20.266667 0 0 1 22.144 9.728 20.074667 20.074667 0 0 1 2.56 8.149333z m-40.362667 147.093333L417.706667 421.312v36.16l309.888-74.453333v-46.869334z" fill="#5F4441" p-id="1338"></path>
  <path d="M746.602667 189.056l0.064 1.749333V606.933333c0 17.728-5.888 34.986667-16.725334 49.024a81.130667 81.130667 0 0 1-95.082666 25.365334 80.746667 80.746667 0 0 1-39.04-34.133334 80.298667 80.298667 0 0 1 12.842666-97.237333 80.96 80.96 0 0 1 97.6-12.778667v-113.152l-309.909333 74.453334v182.293333h-0.277333a80.32 80.32 0 0 1-13.013334 50.944 81.130667 81.130667 0 0 1-94.570666 31.658667 80.789333 80.789333 0 0 1-41.258667-32.789334 80.298667 80.298667 0 0 1 9.941333-98.88 81.088 81.088 0 0 1 98.773334-13.973333l-0.042667-346.368a20.074667 20.074667 0 0 1 13.866667-19.136l1.813333-0.490667 350.314667-80.554666a20.266667 20.266667 0 0 1 22.144 9.728 20.074667 20.074667 0 0 1 2.56 8.149333z m-40.362667 147.093333L396.373333 421.312v36.16l309.888-74.453333v-46.869334z" fill="#EF4D43" p-id="1339"></path>
</svg>