<svg t="1715938546868" class="icon" viewBox="0 0 1024 1024" version="1.1"
  xmlns="http://www.w3.org/2000/svg" p-id="1463" fill="currentColor">
  <path d="M298.026667 128c15.872 0 31.402667 4.821333 44.885333 13.909333l432.981333 292.48c2.730667 1.834667 5.333333 3.84 7.850667 5.973334L783.701333 204.8a32 32 0 1 1 64 0v614.4a32 32 0 0 1-64 0v-235.562667c-2.474667 2.133333-5.12 4.138667-7.808 5.973334L342.912 882.090667c-39.68 26.794667-91.904 13.738667-116.693333-29.098667A97.066667 97.066667 0 0 1 213.333333 804.48V219.52C213.333333 168.96 251.264 128 298.026667 128z" p-id="1464"></path>
</svg>