<svg t="1715939188218" class="icon" viewBox="0 0 1024 1024" version="1.1"
  xmlns="http://www.w3.org/2000/svg" p-id="2460" fill="currentColor">
  <path d="M833.28 79.744a32 32 0 1 0-45.184 45.312L861.44 198.4H341.312a288 288 0 0 0-288 288 32 32 0 1 0 64 0 224 224 0 0 1 224-224h520.128l-73.344 73.344a32 32 0 1 0 45.248 45.312l128-128a32 32 0 0 0 0-45.312l-128-128zM938.688 505.6a32 32 0 0 1 32 32 288 288 0 0 1-288 288H162.56l73.344 73.344a32 32 0 1 1-45.248 45.312l-128-128a31.936 31.936 0 0 1 0-45.312l128-128a32 32 0 0 1 45.248 45.312L162.56 761.6h520.064a224 224 0 0 0 224-224 32 32 0 0 1 32-32z" p-id="2461"></path>
</svg>