<svg t="1715939161993" class="icon" viewBox="0 0 1024 1024" version="1.1"
  xmlns="http://www.w3.org/2000/svg" p-id="2063" fill="currentColor">
  <path d="M796.608 79.744a32 32 0 0 1 45.248 0l128 128a32 32 0 0 1 0 45.312l-128 128a32 32 0 1 1-45.248-45.312l69.12-69.12h-76.416A245.312 245.312 0 0 0 544 508.608v6.848a245.312 245.312 0 0 0 245.312 241.92h76.352l-69.12-69.12a32 32 0 1 1 45.312-45.248l128 128a32 32 0 0 1 0 45.312l-128 128a32 32 0 1 1-45.248-45.312l77.632-77.632h-84.928A309.376 309.376 0 0 1 512 649.152a309.312 309.312 0 0 1-277.312 172.16H85.376a32 32 0 1 1 0-64h149.312c134.4 0 243.52-107.968 245.312-241.92v-6.784a245.312 245.312 0 0 0-245.312-241.92H85.376a32 32 0 1 1 0-64h149.312c121.6 0 226.752 70.08 277.312 172.096a309.312 309.312 0 0 1 277.312-172.16h84.928l-77.632-77.568a32 32 0 0 1 0-45.312z" p-id="2064"></path>
</svg>