<svg t="1715939212423" class="icon" viewBox="0 0 1024 1024" version="1.1"
  xmlns="http://www.w3.org/2000/svg" p-id="2613" fill="currentColor">
  <path d="M833.28 79.744a32 32 0 1 0-45.184 45.312L861.44 198.4H339.2A288 288 0 0 0 51.2 486.4v51.2a288 288 0 0 0 288 288h345.6a281.6 281.6 0 0 0 281.6-281.6 32 32 0 0 0-64 0 217.6 217.6 0 0 1-217.6 217.6H339.2a224 224 0 0 1-224-224v-51.2a224 224 0 0 1 224-224h522.24l-73.344 73.344a32 32 0 1 0 45.248 45.312l128-128a32 32 0 0 0 0-45.312l-128-128zM544 384a31.872 31.872 0 0 0-51.2-25.6L390.4 435.2a32 32 0 0 0 38.4 51.2l51.2-38.4v192a32 32 0 1 0 64 0V384z" p-id="2614"></path>
</svg>