<svg t="1715938492347" class="icon" viewBox="0 0 1024 1024" version="1.1"
  xmlns="http://www.w3.org/2000/svg" p-id="1157" fill="currentColor">
  <path d="M768.64 128C815.402667 128 853.333333 168.96 853.333333 219.52v584.96c0 17.152-4.437333 33.962667-12.885333 48.512-24.746667 42.837333-77.013333 55.893333-116.693333 29.098667L290.773333 589.610667a85.034667 85.034667 0 0 1-7.808-5.973334V819.2a32 32 0 1 1-64 0V204.8a32 32 0 0 1 64 0v235.52c2.474667-2.090667 5.12-4.096 7.808-5.973333l432.981334-292.437334c13.482667-9.088 29.013333-13.909333 44.885333-13.909333z" p-id="1158"></path>
</svg>