<svg t="1717378956736" class="icon" viewBox="0 0 1024 1024" version="1.1"
  xmlns="http://www.w3.org/2000/svg" p-id="5000" fill="currentColor">
  <path d="M960 448h-64c-2.24 0-4.096 1.088-6.336 1.28a380.821333 380.821333 0 0 0-65.984-160.128c1.6-1.344 3.584-1.856 5.12-3.392l45.248-45.248c25.024-25.024 25.024-65.472 0-90.496s-65.536-25.024-90.496 0L738.24 195.2c-1.472 1.472-2.048 3.52-3.392 5.12a379.669333 379.669333 0 0 0-160.128-65.984c0.192-2.24 1.28-4.096 1.28-6.336V64a64 64 0 1 0-128 0v64c0 2.24 1.088 4.096 1.28 6.336a379.669333 379.669333 0 0 0-160.128 65.984c-1.344-1.6-1.92-3.584-3.392-5.12l-45.248-45.248a64 64 0 1 0-90.56 90.496l45.312 45.248c1.472 1.536 3.392 2.112 5.056 3.456a380.010667 380.010667 0 0 0-65.984 160.128C132.096 449.088 130.24 448 128 448H64a64 64 0 1 0 0 128h64c2.24 0 4.096-1.024 6.336-1.28a380.821333 380.821333 0 0 0 65.984 160.128c-1.6 1.344-3.584 1.856-5.056 3.392l-45.312 45.248a64 64 0 1 0 90.56 90.496l45.248-45.248c1.472-1.472 2.048-3.52 3.392-5.12a380.586667 380.586667 0 0 0 160.128 66.048c-0.192 2.24-1.28 4.096-1.28 6.336v64c0 35.392 28.608 64 64 64s64-28.608 64-64v-64c0-2.24-1.088-4.096-1.28-6.336a380.928 380.928 0 0 0 160.128-66.048c1.344 1.6 1.856 3.648 3.392 5.12l45.312 45.248a63.936 63.936 0 0 0 90.496 0 63.936 63.936 0 0 0 0-90.496l-45.248-45.248c-1.536-1.472-3.52-1.984-5.12-3.392a380.821333 380.821333 0 0 0 65.984-160.128c2.24 0.256 4.096 1.28 6.336 1.28h64a64 64 0 1 0 0-128zM512 768c-141.376 0-256-114.624-256-256s114.624-256 256-256 256 114.624 256 256-114.624 256-256 256z" p-id="5001"></path>
</svg>