<svg t="1715938616578" class="icon" viewBox="0 0 1024 1024" version="1.1"
  xmlns="http://www.w3.org/2000/svg" p-id="1767" width="200" height="200">
  <path d="M237.397333 128h549.205334c38.058667 0 51.84 3.968 65.706666 11.392 13.952 7.424 24.874667 18.346667 32.298667 32.256 7.424 13.909333 11.392 27.733333 11.392 65.706667v549.248c0 38.058667-3.968 51.84-11.392 65.706666-7.424 13.952-18.346667 24.874667-32.256 32.298667-13.909333 7.424-27.733333 11.392-65.706667 11.392H237.354667c-38.058667 0-51.84-3.968-65.706667-11.392a77.525333 77.525333 0 0 1-32.298667-32.256c-7.424-13.909333-11.392-27.733333-11.392-65.706667V237.354667c0-38.058667 3.968-51.84 11.392-65.706667 7.424-13.952 18.346667-24.874667 32.256-32.298667 13.909333-7.424 27.733333-11.392 65.706667-11.392z" p-id="1768"></path>
</svg>