<svg t="1715912966361" class="icon" viewBox="0 0 1024 1024" version="1.1"
  xmlns="http://www.w3.org/2000/svg" p-id="1140" width="20" height="20" fill="currentColor">
  <path d="M658.816 301.184a64 64 0 0 1 64 64v474.368a64 64 0 0 1-64 64H184.448a64 64 0 0 1-64-64V365.184a64 64 0 0 1 64-64h474.368z m0 64H184.448v474.368h474.368V365.184z" p-id="1141"></path>
  <path d="M839.552 88.448a96 96 0 0 1 96 96v414.08a96 96 0 0 1-96 96h-89.728v-64h89.728a32 32 0 0 0 32-32v-414.08a32 32 0 0 0-32-32h-414.08a32 32 0 0 0-32 32v82.304h-64V184.448a96 96 0 0 1 96-96h414.08z" p-id="1142"></path>
</svg>