<svg t="1717378319960" class="icon" viewBox="0 0 1024 1024" version="1.1"
  xmlns="http://www.w3.org/2000/svg" p-id="4559" fill="currentColor">
  <path d="M557.376 530.752l128 128c13.632 13.76 20.096 32.64 18.368 51.392a60.309333 60.309333 0 0 1-4.48 18.368A64.042667 64.042667 0 0 1 640.128 768H576v192c0 35.392-28.608 64-64 64s-64-28.608-64-64v-192h-63.872a64.042667 64.042667 0 0 1-63.744-57.856 64.192 64.192 0 0 1 18.496-51.392l128-128A63.829333 63.829333 0 0 1 512.128 512c16.384 0 32.768 6.272 45.248 18.752zM832 320c106.048 0 192 86.016 192 192v64a192 192 0 0 1-192 192h-11.456c5.504-15.424 9.408-31.168 10.624-46.016a192.213333 192.213333 0 0 0-55.296-153.728l-128-128A190.592 190.592 0 0 0 512.128 384a190.848 190.848 0 0 0-135.808 56.256l-128 128c-40.576 40.576-60.736 96.64-55.36 154.624 1.408 13.376 4.608 26.368 8.576 39.04C86.4 736.96 0 634.688 0 512v-64C0 306.624 114.624 192 256 192c24.384 0 47.36 4.48 69.696 10.816C350.208 86.976 452.864 0 576 0c141.376 0 256 114.624 256 256 0 22.592-3.904 44.096-9.344 64.96 3.136-0.192 6.144-0.96 9.344-0.96z" p-id="4560"></path>
</svg>