<svg t="1716267898500" class="icon" viewBox="0 0 1024 1024" version="1.1"
  xmlns="http://www.w3.org/2000/svg" p-id="18922" fill="currentColor">
  <path d="M742.4 225.28c-23.04 0-40.96 17.92-40.96 40.96S719.36 307.2 742.4 307.2c112.64 0 202.24 92.16 202.24 202.24s-92.16 202.24-202.24 202.24c-23.04 0-40.96 17.92-40.96 40.96S719.36 793.6 742.4 793.6c156.16 0 281.6-128 281.6-281.6S896 225.28 742.4 225.28zM545.28 61.44c-48.64-20.48-102.4-10.24-140.8 28.16l-145.92 148.48c-10.24 12.8-28.16 20.48-46.08 20.48H145.92C64 258.56 0 325.12 0 409.6v209.92c0 81.92 66.56 151.04 145.92 151.04h66.56c17.92 0 33.28 7.68 46.08 20.48l145.92 148.48c25.6 25.6 56.32 38.4 89.6 38.4 17.92 0 33.28-2.56 51.2-10.24 48.64-20.48 79.36-66.56 79.36-122.88V184.32c0-53.76-30.72-102.4-79.36-122.88z m0 773.12c0 30.72-23.04 43.52-30.72 46.08-7.68 2.56-33.28 10.24-53.76-10.24l-145.92-148.48c-28.16-28.16-64-43.52-102.4-43.52H145.92c-35.84 0-66.56-30.72-66.56-69.12v-209.92c0-38.4 30.72-69.12 66.56-69.12h66.56c38.4 0 76.8-15.36 102.4-43.52L460.8 148.48c20.48-23.04 46.08-12.8 53.76-10.24 7.68 2.56 30.72 15.36 30.72 46.08v650.24z" p-id="18923"></path>
</svg>